<?xml version="1.0" encoding="UTF-8"?>
<!DOCTYPE svg PUBLIC "-//W3C//DTD SVG 1.1//EN" "http://www.w3.org/Graphics/SVG/1.1/DTD/svg11.dtd">
<svg xmlns="http://www.w3.org/2000/svg" version="1.1" width="356px" height="356px" style="shape-rendering:geometricPrecision; text-rendering:geometricPrecision; image-rendering:optimizeQuality; fill-rule:evenodd; clip-rule:evenodd" xmlns:xlink="http://www.w3.org/1999/xlink">
<g><path style="opacity:0.09" fill="#f7e59d" d="M 189.5,-0.5 C 191.167,-0.5 192.833,-0.5 194.5,-0.5C 195.149,2.9272 193.815,5.59387 190.5,7.5C 191.15,5.56475 191.483,3.56475 191.5,1.5C 188.123,1.95947 184.789,2.62614 181.5,3.5C 183.93,1.61854 186.596,0.285203 189.5,-0.5 Z"/></g>
<g><path style="opacity:0.357" fill="#fae6a1" d="M 181.5,3.5 C 181.167,4.16667 180.833,4.83333 180.5,5.5C 177.269,7.21987 174.436,9.5532 172,12.5C 170.768,15.4117 169.268,18.0784 167.5,20.5C 169.215,12.4471 173.882,6.7804 181.5,3.5 Z"/></g>
<g><path style="opacity:0.282" fill="#f7e293" d="M 167.5,21.5 C 167.097,26.1962 166.43,30.8628 165.5,35.5C 164.396,32.9501 163.063,30.6168 161.5,28.5C 161.167,27.8333 160.833,27.1667 160.5,26.5C 159.337,21.5314 158.17,16.5314 157,11.5C 152.903,19.2623 152.403,27.2623 155.5,35.5C 155.5,36.1667 155.5,36.8333 155.5,37.5C 153.116,33.9736 151.783,29.9736 151.5,25.5C 154.805,3.46193 158.305,3.12859 162,24.5C 162.739,26.2205 163.573,27.8872 164.5,29.5C 165.257,26.6303 166.257,23.9636 167.5,21.5 Z"/></g>
<g><path style="opacity:0.094" fill="#f8e593" d="M 203.5,19.5 C 203.5,17.8333 203.5,16.1667 203.5,14.5C 199.708,14.7264 196.041,15.5597 192.5,17C 191.058,17.3768 190.058,18.2101 189.5,19.5C 185.274,21.8791 181.441,24.8791 178,28.5C 177.262,26.1195 177.762,24.1195 179.5,22.5C 179.369,23.2389 179.536,23.9056 180,24.5C 187.506,16.7193 196.673,12.7193 207.5,12.5C 207.851,15.8116 206.518,18.145 203.5,19.5 Z"/></g>
<g><path style="opacity:0.753" fill="#efc954" d="M 190.5,7.5 C 187.801,11.1902 185.135,14.8569 182.5,18.5C 182.19,17.2617 181.69,17.2617 181,18.5C 180.209,19.745 179.709,21.0783 179.5,22.5C 177.762,24.1195 177.262,26.1195 178,28.5C 181.441,24.8791 185.274,21.8791 189.5,19.5C 185.194,23.6346 180.694,27.6346 176,31.5C 175.833,30.3333 175.667,29.1667 175.5,28C 177.33,23.1642 179.33,18.3308 181.5,13.5C 185.152,10.8116 187.819,7.47828 189.5,3.5C 186.892,3.40027 184.558,4.06694 182.5,5.5C 181.833,5.5 181.167,5.5 180.5,5.5C 180.833,4.83333 181.167,4.16667 181.5,3.5C 184.789,2.62614 188.123,1.95947 191.5,1.5C 191.483,3.56475 191.15,5.56475 190.5,7.5 Z"/></g>
<g><path style="opacity:1" fill="#f8bf2d" d="M 189.5,19.5 C 190.058,18.2101 191.058,17.3768 192.5,17C 196.041,15.5597 199.708,14.7264 203.5,14.5C 203.5,16.1667 203.5,17.8333 203.5,19.5C 201.742,19.8769 200.075,20.5435 198.5,21.5C 196.644,24.1897 194.311,26.3563 191.5,28C 189.747,29.9985 188.413,32.1652 187.5,34.5C 183.714,34.3932 180.714,35.8932 178.5,39C 174.973,39.8075 171.64,39.6408 168.5,38.5C 167.969,31.4668 168.802,24.4668 171,17.5C 175.037,13.631 178.87,9.63104 182.5,5.5C 184.558,4.06694 186.892,3.40027 189.5,3.5C 187.819,7.47828 185.152,10.8116 181.5,13.5C 179.33,18.3308 177.33,23.1642 175.5,28C 175.667,29.1667 175.833,30.3333 176,31.5C 180.694,27.6346 185.194,23.6346 189.5,19.5 Z"/></g>
<g><path style="opacity:0.11" fill="#fde495" d="M 182.5,18.5 C 182.262,20.4044 181.262,21.7377 179.5,22.5C 179.709,21.0783 180.209,19.745 181,18.5C 181.69,17.2617 182.19,17.2617 182.5,18.5 Z"/></g>
<g><path style="opacity:1" fill="#eebe40" d="M 180.5,5.5 C 181.167,5.5 181.833,5.5 182.5,5.5C 178.87,9.63104 175.037,13.631 171,17.5C 168.802,24.4668 167.969,31.4668 168.5,38.5C 165.91,38.3962 163.577,39.0629 161.5,40.5C 158.553,39.8805 156.553,38.2139 155.5,35.5C 152.403,27.2623 152.903,19.2623 157,11.5C 158.17,16.5314 159.337,21.5314 160.5,26.5C 159.207,25.158 158.374,23.4913 158,21.5C 157.333,20.1667 156.667,20.1667 156,21.5C 155.004,27.522 156.17,33.022 159.5,38C 161.403,38.7737 163.07,38.4404 164.5,37C 162.503,34.5084 161.503,31.675 161.5,28.5C 163.063,30.6168 164.396,32.9501 165.5,35.5C 166.43,30.8628 167.097,26.1962 167.5,21.5C 167.5,21.1667 167.5,20.8333 167.5,20.5C 169.268,18.0784 170.768,15.4117 172,12.5C 174.436,9.5532 177.269,7.21987 180.5,5.5 Z"/></g>
<g><path style="opacity:0.4" fill="#f1d673" d="M 203.5,19.5 C 198.796,25.2051 193.463,30.2051 187.5,34.5C 188.413,32.1652 189.747,29.9985 191.5,28C 194.311,26.3563 196.644,24.1897 198.5,21.5C 200.075,20.5435 201.742,19.8769 203.5,19.5 Z"/></g>
<g><path style="opacity:1" fill="#f9be2b" d="M 160.5,26.5 C 160.833,27.1667 161.167,27.8333 161.5,28.5C 161.503,31.675 162.503,34.5084 164.5,37C 163.07,38.4404 161.403,38.7737 159.5,38C 156.17,33.022 155.004,27.522 156,21.5C 156.667,20.1667 157.333,20.1667 158,21.5C 158.374,23.4913 159.207,25.158 160.5,26.5 Z"/></g>
<g><path style="opacity:0.49" fill="#f7e799" d="M 185.5,36.5 C 185.082,37.2216 184.416,37.7216 183.5,38C 196.295,39.6918 208.295,43.5252 219.5,49.5C 211.751,47.4744 204.084,44.9744 196.5,42C 191.833,41.6667 187.167,41.3333 182.5,41C 180.839,37.8501 181.839,36.3501 185.5,36.5 Z"/></g>
<g><path style="opacity:0.443" fill="#f5e798" d="M 219.5,49.5 C 227.346,53.0243 234.013,58.0243 239.5,64.5C 232.389,59.9603 225.722,54.9603 219.5,49.5 Z"/></g>
<g><path style="opacity:1" fill="#fadb56" d="M 187.5,34.5 C 187.167,35.5 186.5,36.1667 185.5,36.5C 181.839,36.3501 180.839,37.8501 182.5,41C 187.167,41.3333 191.833,41.6667 196.5,42C 204.084,44.9744 211.751,47.4744 219.5,49.5C 225.722,54.9603 232.389,59.9603 239.5,64.5C 241.384,68.0592 244.051,71.0592 247.5,73.5C 247.343,74.8734 247.51,76.2068 248,77.5C 250,79.5 252,81.5 254,83.5C 256.575,87.5561 258.575,91.8894 260,96.5C 261.039,97.7101 262.206,98.7101 263.5,99.5C 263.338,101.527 263.505,103.527 264,105.5C 267.411,113.124 269.911,121.124 271.5,129.5C 270.027,127.417 268.86,125.084 268,122.5C 267.013,125.697 267.513,128.53 269.5,131C 268.287,133.687 267.62,136.52 267.5,139.5C 263.37,139.466 259.37,138.799 255.5,137.5C 255.5,135.5 255.5,133.5 255.5,131.5C 256.833,131.5 258.167,131.5 259.5,131.5C 259.232,128.881 259.565,126.381 260.5,124C 258.866,123.506 257.199,123.34 255.5,123.5C 255.5,122.167 255.5,120.833 255.5,119.5C 254.167,119.5 252.833,119.5 251.5,119.5C 252.345,113.008 253.345,106.341 254.5,99.5C 250.833,99.5 247.167,99.5 243.5,99.5C 243.5,104.833 243.5,110.167 243.5,115.5C 242.5,115.5 241.5,115.5 240.5,115.5C 240.5,118.833 238.833,120.5 235.5,120.5C 235.808,122.924 235.474,125.257 234.5,127.5C 234.167,126.167 233.833,124.833 233.5,123.5C 234.191,120.802 234.858,118.135 235.5,115.5C 230.833,116.833 226.167,118.167 221.5,119.5C 223.532,123.242 225.365,127.242 227,131.5C 227.249,130.376 227.749,129.376 228.5,128.5C 230.169,129.671 231.669,131.004 233,132.5C 235.099,131.713 237.266,131.38 239.5,131.5C 239.5,136.5 239.5,141.5 239.5,146.5C 238.167,146.5 236.833,146.5 235.5,146.5C 235.823,142.774 235.489,139.107 234.5,135.5C 233.752,138.497 233.085,141.497 232.5,144.5C 232.833,145.167 233.167,145.833 233.5,146.5C 231.922,147.298 230.256,147.798 228.5,148C 230.211,149.133 230.711,150.633 230,152.5C 227.895,153.311 225.895,154.311 224,155.5C 221.548,154.788 219.381,155.455 217.5,157.5C 212.781,159.886 209.448,163.553 207.5,168.5C 206.883,168.389 206.383,168.056 206,167.5C 205.505,169.473 205.338,171.473 205.5,173.5C 204.167,173.5 202.833,173.5 201.5,173.5C 200.833,181.5 200.167,181.5 199.5,173.5C 195.818,173.335 192.152,173.501 188.5,174C 187.167,174.667 187.167,175.333 188.5,176C 187.892,176.87 187.059,177.37 186,177.5C 182.374,175.576 178.541,175.076 174.5,176C 174.833,176.333 175.167,176.667 175.5,177C 174.223,178.786 172.556,179.952 170.5,180.5C 167.148,176.627 163.815,176.627 160.5,180.5C 154.938,180.092 154.438,178.758 159,176.5C 159.483,175.552 159.649,174.552 159.5,173.5C 152.833,173.5 146.167,173.5 139.5,173.5C 140.618,178.147 140.618,182.814 139.5,187.5C 136.833,187.5 134.167,187.5 131.5,187.5C 131.5,189.5 131.5,191.5 131.5,193.5C 127.077,193.69 122.744,194.357 118.5,195.5C 110.455,196.307 101.455,195.973 91.5,194.5C 96.69,194.049 101.69,193.049 106.5,191.5C 107.748,192.04 108.915,192.707 110,193.5C 113.023,192.906 116.523,192.74 120.5,193C 120.167,192.667 119.833,192.333 119.5,192C 120.624,191.751 121.624,191.251 122.5,190.5C 122.333,190.167 122.167,189.833 122,189.5C 121,189.833 120,190.167 119,190.5C 115.12,188.458 114.953,186.625 118.5,185C 121.89,184.754 125.223,184.254 128.5,183.5C 130.252,179.95 132.919,177.283 136.5,175.5C 136.698,172.498 137.365,169.331 138.5,166C 136.094,163.418 136.094,160.752 138.5,158C 137.004,157.493 135.837,157.993 135,159.5C 132.243,158.055 130.076,156.055 128.5,153.5C 140.317,153.185 145.483,147.185 144,135.5C 143.9,132.097 143.066,128.93 141.5,126C 136.199,123.132 130.533,121.965 124.5,122.5C 124.5,124.167 124.5,125.833 124.5,127.5C 123.127,127.343 121.793,127.51 120.5,128C 120.833,128.333 121.167,128.667 121.5,129C 117.682,135.691 117.515,142.525 121,149.5C 122.98,150.749 124.813,152.082 126.5,153.5C 120.249,150.979 113.749,149.312 107,148.5C 104.923,149.017 102.923,149.684 101,150.5C 100.667,150.167 100.333,149.833 100,149.5C 99.4921,151.904 98.3255,152.571 96.5,151.5C 95.1552,152.347 94.1552,153.513 93.5,155C 92.2068,155.49 90.8734,155.657 89.5,155.5C 89.4211,153.334 88.7545,151.334 87.5,149.5C 90.1668,147.5 91.5001,144.833 91.5,141.5C 96.5111,141.666 101.511,141.499 106.5,141C 106.167,140.667 105.833,140.333 105.5,140C 107.02,137.46 108.02,134.627 108.5,131.5C 109.281,132.729 109.781,134.062 110,135.5C 112.093,132.232 113.426,128.566 114,124.5C 117.029,123.389 119.862,121.389 122.5,118.5C 113.549,116.434 108.882,120.1 108.5,129.5C 107.741,126.843 107.074,124.177 106.5,121.5C 106.709,120.914 107.043,120.414 107.5,120C 104.854,119.503 102.187,119.336 99.5,119.5C 99.5,116.833 99.5,114.167 99.5,111.5C 96.8333,111.5 94.1667,111.5 91.5,111.5C 90.899,105.866 88.2323,104.533 83.5,107.5C 83.001,106.244 81.6677,105.41 79.5,105C 79.4992,101.699 79.6659,98.1991 80,94.5C 81.3717,93.0899 82.205,91.4233 82.5,89.5C 83.9574,85.185 86.1241,81.185 89,77.5C 94.8644,71.301 101.031,65.4677 107.5,60C 115.016,56.2929 122.349,52.2929 129.5,48C 138.403,45.1249 147.07,42.2916 155.5,39.5C 155.5,38.8333 155.5,38.1667 155.5,37.5C 155.5,36.8333 155.5,36.1667 155.5,35.5C 156.553,38.2139 158.553,39.8805 161.5,40.5C 163.577,39.0629 165.91,38.3962 168.5,38.5C 171.64,39.6408 174.973,39.8075 178.5,39C 180.714,35.8932 183.714,34.3932 187.5,34.5 Z"/></g>
<g><path style="opacity:0.435" fill="#f5e89b" d="M 239.5,64.5 C 242.903,66.8998 245.57,69.8998 247.5,73.5C 244.051,71.0592 241.384,68.0592 239.5,64.5 Z"/></g>
<g><path style="opacity:0.349" fill="#f7e99d" d="M 155.5,39.5 C 147.07,42.2916 138.403,45.1249 129.5,48C 122.349,52.2929 115.016,56.2929 107.5,60C 101.031,65.4677 94.8644,71.301 89,77.5C 86.1241,81.185 83.9574,85.185 82.5,89.5C 78.8497,91.8904 76.3497,95.2237 75,99.5C 70.98,109.775 67.1466,120.108 63.5,130.5C 62.3695,134.558 61.0362,138.558 59.5,142.5C 64.1321,110.399 78.4655,83.5661 102.5,62C 118.243,50.1328 135.91,42.6328 155.5,39.5 Z"/></g>
<g><path style="opacity:0.961" fill="#f5e696" d="M 247.5,73.5 C 250.458,76.0595 252.958,79.0595 255,82.5C 258.026,88.0384 260.859,93.705 263.5,99.5C 262.206,98.7101 261.039,97.7101 260,96.5C 258.575,91.8894 256.575,87.5561 254,83.5C 252,81.5 250,79.5 248,77.5C 247.51,76.2068 247.343,74.8734 247.5,73.5 Z"/></g>
<g><path style="opacity:1" fill="#fbda55" d="M 82.5,89.5 C 82.205,91.4233 81.3717,93.0899 80,94.5C 79.6659,98.1991 79.4992,101.699 79.5,105C 81.6677,105.41 83.001,106.244 83.5,107.5C 88.2323,104.533 90.899,105.866 91.5,111.5C 94.1667,111.5 96.8333,111.5 99.5,111.5C 99.5,114.167 99.5,116.833 99.5,119.5C 102.187,119.336 104.854,119.503 107.5,120C 107.043,120.414 106.709,120.914 106.5,121.5C 107.074,124.177 107.741,126.843 108.5,129.5C 108.882,120.1 113.549,116.434 122.5,118.5C 119.862,121.389 117.029,123.389 114,124.5C 113.426,128.566 112.093,132.232 110,135.5C 109.781,134.062 109.281,132.729 108.5,131.5C 108.02,134.627 107.02,137.46 105.5,140C 105.833,140.333 106.167,140.667 106.5,141C 101.511,141.499 96.5111,141.666 91.5,141.5C 91.5001,144.833 90.1668,147.5 87.5,149.5C 88.7545,151.334 89.4211,153.334 89.5,155.5C 90.8734,155.657 92.2068,155.49 93.5,155C 94.1552,153.513 95.1552,152.347 96.5,151.5C 98.3255,152.571 99.4921,151.904 100,149.5C 100.333,149.833 100.667,150.167 101,150.5C 102.923,149.684 104.923,149.017 107,148.5C 113.749,149.312 120.249,150.979 126.5,153.5C 127.167,153.5 127.833,153.5 128.5,153.5C 130.076,156.055 132.243,158.055 135,159.5C 135.837,157.993 137.004,157.493 138.5,158C 136.094,160.752 136.094,163.418 138.5,166C 137.365,169.331 136.698,172.498 136.5,175.5C 132.919,177.283 130.252,179.95 128.5,183.5C 125.223,184.254 121.89,184.754 118.5,185C 114.953,186.625 115.12,188.458 119,190.5C 120,190.167 121,189.833 122,189.5C 122.167,189.833 122.333,190.167 122.5,190.5C 121.624,191.251 120.624,191.751 119.5,192C 119.833,192.333 120.167,192.667 120.5,193C 116.523,192.74 113.023,192.906 110,193.5C 108.915,192.707 107.748,192.04 106.5,191.5C 101.69,193.049 96.69,194.049 91.5,194.5C 101.455,195.973 110.455,196.307 118.5,195.5C 119.388,198.054 119.721,200.721 119.5,203.5C 118.167,203.5 116.833,203.5 115.5,203.5C 115.5,204.833 115.5,206.167 115.5,207.5C 118.518,207.335 121.518,207.502 124.5,208C 128.701,210.672 128.367,211.839 123.5,211.5C 123.5,212.833 123.5,214.167 123.5,215.5C 127.106,215.211 130.606,215.544 134,216.5C 141.374,212.065 149.207,208.565 157.5,206C 169.829,205.5 182.162,205.333 194.5,205.5C 194.5,206.5 194.5,207.5 194.5,208.5C 197.311,208.571 199.978,209.238 202.5,210.5C 204.732,212.645 207.399,214.145 210.5,215C 213.09,218.259 216.256,220.759 220,222.5C 220.352,224.247 220.852,225.914 221.5,227.5C 215.119,223.3 209.119,218.467 203.5,213C 186.978,205.739 169.978,204.739 152.5,210C 144.697,213.817 137.03,217.817 129.5,222C 125.518,227.495 121.351,232.995 117,238.5C 115.333,242.833 113.667,247.167 112,251.5C 111.499,256.508 110.999,261.508 110.5,266.5C 110.167,266.5 109.833,266.5 109.5,266.5C 107.958,265.699 106.292,265.366 104.5,265.5C 93.3381,259.012 83.6715,250.679 75.5,240.5C 74.3262,236.329 72.6595,232.329 70.5,228.5C 69.675,227.614 68.675,227.281 67.5,227.5C 67.6199,225.266 67.2865,223.099 66.5,221C 63.9591,215.765 61.6258,210.598 59.5,205.5C 58.2521,204.666 57.5854,203.333 57.5,201.5C 57.0482,196.753 56.3815,192.086 55.5,187.5C 55.8333,186.833 56.1667,186.167 56.5,185.5C 57.1789,174.104 59.0123,162.77 62,151.5C 62.6661,144.507 63.1661,137.507 63.5,130.5C 67.1466,120.108 70.98,109.775 75,99.5C 76.3497,95.2237 78.8497,91.8904 82.5,89.5 Z"/></g>
<g><path style="opacity:0.969" fill="#f1dc7c" d="M 263.5,99.5 C 268.171,107.493 271.505,116.16 273.5,125.5C 273.833,128.167 274.167,130.833 274.5,133.5C 273.5,132.167 272.5,130.833 271.5,129.5C 269.911,121.124 267.411,113.124 264,105.5C 263.505,103.527 263.338,101.527 263.5,99.5 Z"/></g>
<g><path style="opacity:1" fill="#f3de7f" d="M 217.5,129.5 C 216.391,129.443 215.391,129.11 214.5,128.5C 213.551,127.848 212.385,127.514 211,127.5C 208.992,127.307 207.492,127.974 206.5,129.5C 204.833,131.5 203.167,133.5 201.5,135.5C 202.051,131.773 203.718,128.606 206.5,126C 209.5,125.333 212.5,125.333 215.5,126C 216.973,126.71 217.64,127.876 217.5,129.5 Z"/></g>
<g><path style="opacity:1" fill="#543f1c" d="M 214.5,128.5 C 211.763,128.401 209.096,128.735 206.5,129.5C 207.492,127.974 208.992,127.307 211,127.5C 212.385,127.514 213.551,127.848 214.5,128.5 Z"/></g>
<g><path style="opacity:1" fill="#59462f" d="M 206.5,129.5 C 207.833,130.167 209.167,130.833 210.5,131.5C 206.167,131.167 204.167,133.167 204.5,137.5C 203.883,137.389 203.383,137.056 203,136.5C 202.502,139.482 202.335,142.482 202.5,145.5C 201.521,142.375 201.187,139.042 201.5,135.5C 203.167,133.5 204.833,131.5 206.5,129.5 Z"/></g>
<g><path style="opacity:1" fill="#f4f1ec" d="M 210.5,131.5 C 211.622,133.288 211.789,135.288 211,137.5C 208.707,140.134 206.54,140.134 204.5,137.5C 204.167,133.167 206.167,131.167 210.5,131.5 Z"/></g>
<g><path style="opacity:1" fill="#140706" d="M 214.5,128.5 C 215.391,129.11 216.391,129.443 217.5,129.5C 218.925,130.922 219.925,132.589 220.5,134.5C 220.665,138.182 220.499,141.848 220,145.5C 214.198,144.229 208.364,144.229 202.5,145.5C 202.335,142.482 202.502,139.482 203,136.5C 203.383,137.056 203.883,137.389 204.5,137.5C 206.54,140.134 208.707,140.134 211,137.5C 211.789,135.288 211.622,133.288 210.5,131.5C 209.167,130.833 207.833,130.167 206.5,129.5C 209.096,128.735 211.763,128.401 214.5,128.5 Z"/></g>
<g><path style="opacity:1" fill="#f1d76a" d="M 63.5,130.5 C 63.1661,137.507 62.6661,144.507 62,151.5C 59.0123,162.77 57.1789,174.104 56.5,185.5C 56.824,178.646 56.4907,171.979 55.5,165.5C 55.5,165.167 55.5,164.833 55.5,164.5C 57.4628,162.033 58.6295,159.033 59,155.5C 59.499,151.179 59.6657,146.846 59.5,142.5C 61.0362,138.558 62.3695,134.558 63.5,130.5 Z"/></g>
<g><path style="opacity:1" fill="#f3e07f" d="M 128.5,153.5 C 127.833,153.5 127.167,153.5 126.5,153.5C 124.813,152.082 122.98,150.749 121,149.5C 117.515,142.525 117.682,135.691 121.5,129C 121.167,128.667 120.833,128.333 120.5,128C 121.793,127.51 123.127,127.343 124.5,127.5C 124.5,125.833 124.5,124.167 124.5,122.5C 130.533,121.965 136.199,123.132 141.5,126C 143.066,128.93 143.9,132.097 144,135.5C 145.483,147.185 140.317,153.185 128.5,153.5 Z"/></g>
<g><path style="opacity:1" fill="#e8d587" d="M 137.5,126.5 C 139.752,126.916 141.252,128.249 142,130.5C 142.81,134.358 142.643,138.024 141.5,141.5C 142.183,135.897 140.849,130.897 137.5,126.5 Z"/></g>
<g><path style="opacity:1" fill="#160b06" d="M 137.5,126.5 C 140.849,130.897 142.183,135.897 141.5,141.5C 140.737,143.368 139.737,145.035 138.5,146.5C 137.251,144.864 135.584,143.697 133.5,143C 129.277,142.812 125.277,141.979 121.5,140.5C 121.122,135.766 122.122,131.433 124.5,127.5C 128.536,123.878 132.869,123.545 137.5,126.5 Z"/></g>
<g><path style="opacity:1" fill="#e9e4e3" d="M 126.5,127.5 C 131.747,127.64 132.747,129.806 129.5,134C 124.148,134.175 123.148,132.009 126.5,127.5 Z"/></g>
<g><path style="opacity:1" fill="#f67c13" d="M 189.5,155.5 C 180.532,155.157 171.366,154.49 162,153.5C 160.122,153.696 158.288,154.029 156.5,154.5C 158.833,151.833 161.167,149.167 163.5,146.5C 167.301,142.381 171.968,141.048 177.5,142.5C 182.223,146.221 186.223,150.554 189.5,155.5 Z"/></g>
<g><path style="opacity:1" fill="#321007" d="M 121.5,140.5 C 125.277,141.979 129.277,142.812 133.5,143C 135.584,143.697 137.251,144.864 138.5,146.5C 138.084,148.752 136.751,150.252 134.5,151C 126.177,152.515 121.844,149.015 121.5,140.5 Z"/></g>
<g><path style="opacity:1" fill="#300f05" d="M 220.5,134.5 C 221.404,135.209 221.737,136.209 221.5,137.5C 221.945,142.101 221.278,146.435 219.5,150.5C 218.128,151.512 216.795,152.512 215.5,153.5C 212.43,153.632 209.43,153.299 206.5,152.5C 204.396,150.628 203.063,148.295 202.5,145.5C 208.364,144.229 214.198,144.229 220,145.5C 220.499,141.848 220.665,138.182 220.5,134.5 Z"/></g>
<g><path style="opacity:0.404" fill="#faeba4" d="M 59.5,142.5 C 59.6657,146.846 59.499,151.179 59,155.5C 58.6295,159.033 57.4628,162.033 55.5,164.5C 56.7244,157.053 58.0577,149.72 59.5,142.5 Z"/></g>
<g><path style="opacity:1" fill="#f0d463" d="M 275.5,140.5 C 279.903,156.408 281.57,172.741 280.5,189.5C 279.833,189.5 279.167,189.5 278.5,189.5C 278.499,177.814 277.999,166.147 277,154.5C 275.978,153.646 275.145,152.646 274.5,151.5C 275.426,147.906 275.759,144.24 275.5,140.5 Z"/></g>
<g><path style="opacity:1" fill="#e79726" d="M 163.5,146.5 C 161.167,149.167 158.833,151.833 156.5,154.5C 156.5,154.833 156.5,155.167 156.5,155.5C 155.427,154.749 155.26,153.749 156,152.5C 158.106,149.882 160.606,147.882 163.5,146.5 Z"/></g>
<g><path style="opacity:1" fill="#f6df80" d="M 217.5,129.5 C 219.17,129.751 220.67,130.418 222,131.5C 224.226,137.311 224.892,143.311 224,149.5C 219.825,154.346 214.658,156.513 208.5,156C 205.384,154.551 202.884,152.384 201,149.5C 200.185,144.648 200.352,139.981 201.5,135.5C 201.187,139.042 201.521,142.375 202.5,145.5C 203.063,148.295 204.396,150.628 206.5,152.5C 206.611,153.117 206.944,153.617 207.5,154C 210.367,154.801 213.034,154.634 215.5,153.5C 216.795,152.512 218.128,151.512 219.5,150.5C 220.15,150.196 220.817,149.863 221.5,149.5C 222.809,145.351 222.809,141.351 221.5,137.5C 221.737,136.209 221.404,135.209 220.5,134.5C 219.925,132.589 218.925,130.922 217.5,129.5 Z"/></g>
<g><path style="opacity:1" fill="#dac67e" d="M 221.5,137.5 C 222.809,141.351 222.809,145.351 221.5,149.5C 220.817,149.863 220.15,150.196 219.5,150.5C 221.278,146.435 221.945,142.101 221.5,137.5 Z"/></g>
<g><path style="opacity:1" fill="#6e491f" d="M 206.5,152.5 C 209.43,153.299 212.43,153.632 215.5,153.5C 213.034,154.634 210.367,154.801 207.5,154C 206.944,153.617 206.611,153.117 206.5,152.5 Z"/></g>
<g><path style="opacity:1" fill="#d94503" d="M 189.5,155.5 C 189.068,156.71 188.401,157.71 187.5,158.5C 185.603,157.195 183.269,156.529 180.5,156.5C 177.626,156.574 174.792,156.907 172,157.5C 168.379,155.377 164.546,155.043 160.5,156.5C 160.137,157.183 159.804,157.85 159.5,158.5C 158.167,157.833 157.167,156.833 156.5,155.5C 156.5,155.167 156.5,154.833 156.5,154.5C 158.288,154.029 160.122,153.696 162,153.5C 171.366,154.49 180.532,155.157 189.5,155.5 Z"/></g>
<g><path style="opacity:1" fill="#da2c04" d="M 187.5,158.5 C 186.448,158.351 185.448,158.517 184.5,159C 180.469,162.345 176.136,165.179 171.5,167.5C 167.488,164.485 163.488,161.485 159.5,158.5C 159.804,157.85 160.137,157.183 160.5,156.5C 164.546,155.043 168.379,155.377 172,157.5C 174.792,156.907 177.626,156.574 180.5,156.5C 183.269,156.529 185.603,157.195 187.5,158.5 Z"/></g>
<g><path style="opacity:1" fill="#fac451" d="M 99.5,179.5 C 106.472,180.508 113.472,180.675 120.5,180C 125.38,178.645 129.547,176.145 133,172.5C 134.161,167.628 132.994,163.461 129.5,160C 124.62,156.351 119.12,154.185 113,153.5C 107.962,153.949 102.962,154.615 98,155.5C 91.7552,158.985 89.7552,164.318 92,171.5C 94.4145,174.014 96.5812,176.681 98.5,179.5C 85.2027,172.107 84.5361,163.607 96.5,154C 101.305,152.953 106.138,152.119 111,151.5C 118.683,152.545 125.849,155.045 132.5,159C 133.701,159.903 134.535,161.069 135,162.5C 135.667,166.5 135.667,170.5 135,174.5C 125.197,183.652 113.864,185.985 101,181.5C 99.9701,181.164 99.4701,180.497 99.5,179.5 Z"/></g>
<g><path style="opacity:1" fill="#f7b24e" d="M 99.5,179.5 C 99.1667,179.5 98.8333,179.5 98.5,179.5C 96.5812,176.681 94.4145,174.014 92,171.5C 89.7552,164.318 91.7552,158.985 98,155.5C 102.962,154.615 107.962,153.949 113,153.5C 119.12,154.185 124.62,156.351 129.5,160C 132.994,163.461 134.161,167.628 133,172.5C 129.547,176.145 125.38,178.645 120.5,180C 113.472,180.675 106.472,180.508 99.5,179.5 Z"/></g>
<g><path style="opacity:1" fill="#fbac59" d="M 113.5,154.5 C 117.419,156.296 121.419,157.796 125.5,159C 125.793,162.094 127.459,163.594 130.5,163.5C 131.135,166.493 131.301,169.493 131,172.5C 126.996,174 123.329,176 120,178.5C 109.743,180.593 101.076,177.926 94,170.5C 92.9538,164.252 95.4538,159.585 101.5,156.5C 103.306,157.859 104.806,157.525 106,155.5C 108.658,156.378 111.158,156.044 113.5,154.5 Z"/></g>
<g><path style="opacity:1" fill="#f7b850" d="M 251.5,163.5 C 253.013,165.879 254.013,168.545 254.5,171.5C 253.779,174.605 252.779,177.605 251.5,180.5C 248.21,182.845 244.543,184.678 240.5,186C 233.459,186.664 226.459,186.331 219.5,185C 216.431,182.34 213.264,179.84 210,177.5C 207.83,172.851 208.33,168.518 211.5,164.5C 220.517,159.325 230.184,157.159 240.5,158C 244.286,159.626 247.953,161.459 251.5,163.5 Z"/></g>
<g><path style="opacity:1" fill="#fbac59" d="M 229.5,160.5 C 235.794,160.532 241.794,161.699 247.5,164C 251.26,167.69 252.427,172.19 251,177.5C 248.028,178.026 245.528,179.359 243.5,181.5C 241.234,182.314 238.9,182.814 236.5,183C 230.589,183.244 224.922,182.744 219.5,181.5C 216.747,179.911 214.914,177.578 214,174.5C 212.752,170.314 213.919,166.98 217.5,164.5C 221.75,163.5 225.75,162.166 229.5,160.5 Z"/></g>
<g><path style="opacity:1" fill="#bd4708" d="M 159.5,158.5 C 163.488,161.485 167.488,164.485 171.5,167.5C 176.136,165.179 180.469,162.345 184.5,159C 185.448,158.517 186.448,158.351 187.5,158.5C 182.681,163.146 177.181,166.812 171,169.5C 170.167,169.333 169.333,169.167 168.5,169C 165.157,165.829 162.157,162.329 159.5,158.5 Z"/></g>
<g><path style="opacity:1" fill="#fbda55" d="M 271.5,129.5 C 272.5,130.833 273.5,132.167 274.5,133.5C 275.219,135.764 275.552,138.097 275.5,140.5C 275.759,144.24 275.426,147.906 274.5,151.5C 275.145,152.646 275.978,153.646 277,154.5C 277.999,166.147 278.499,177.814 278.5,189.5C 276.338,203.823 272.172,217.489 266,230.5C 261.921,236.925 257.755,243.259 253.5,249.5C 248.688,255.909 242.688,260.909 235.5,264.5C 234.833,264.833 234.167,265.167 233.5,265.5C 232.957,265.44 232.624,265.107 232.5,264.5C 234.512,260.408 235.012,256.075 234,251.5C 231.461,247.086 229.461,242.419 228,237.5C 226.846,236.257 225.512,235.257 224,234.5C 223.621,231.97 222.787,229.637 221.5,227.5C 220.852,225.914 220.352,224.247 220,222.5C 216.256,220.759 213.09,218.259 210.5,215C 207.399,214.145 204.732,212.645 202.5,210.5C 199.978,209.238 197.311,208.571 194.5,208.5C 194.5,207.5 194.5,206.5 194.5,205.5C 182.162,205.333 169.829,205.5 157.5,206C 149.207,208.565 141.374,212.065 134,216.5C 130.606,215.544 127.106,215.211 123.5,215.5C 123.5,214.167 123.5,212.833 123.5,211.5C 128.367,211.839 128.701,210.672 124.5,208C 121.518,207.502 118.518,207.335 115.5,207.5C 115.5,206.167 115.5,204.833 115.5,203.5C 116.833,203.5 118.167,203.5 119.5,203.5C 119.721,200.721 119.388,198.054 118.5,195.5C 122.744,194.357 127.077,193.69 131.5,193.5C 131.5,191.5 131.5,189.5 131.5,187.5C 134.167,187.5 136.833,187.5 139.5,187.5C 140.618,182.814 140.618,178.147 139.5,173.5C 146.167,173.5 152.833,173.5 159.5,173.5C 159.649,174.552 159.483,175.552 159,176.5C 154.438,178.758 154.938,180.092 160.5,180.5C 163.815,176.627 167.148,176.627 170.5,180.5C 172.556,179.952 174.223,178.786 175.5,177C 175.167,176.667 174.833,176.333 174.5,176C 178.541,175.076 182.374,175.576 186,177.5C 187.059,177.37 187.892,176.87 188.5,176C 187.167,175.333 187.167,174.667 188.5,174C 192.152,173.501 195.818,173.335 199.5,173.5C 200.167,181.5 200.833,181.5 201.5,173.5C 202.833,173.5 204.167,173.5 205.5,173.5C 205.338,171.473 205.505,169.473 206,167.5C 206.383,168.056 206.883,168.389 207.5,168.5C 206.22,175.89 208.553,181.723 214.5,186C 216.952,186.29 219.285,186.956 221.5,188C 227.07,189.889 232.57,190.723 238,190.5C 241.909,188.319 246.076,186.819 250.5,186C 251.406,184.301 251.739,182.467 251.5,180.5C 252.779,177.605 253.779,174.605 254.5,171.5C 254.013,168.545 253.013,165.879 251.5,163.5C 251.489,161.983 250.823,160.816 249.5,160C 244.847,157.34 239.847,155.84 234.5,155.5C 228.795,155.908 223.128,156.575 217.5,157.5C 219.381,155.455 221.548,154.788 224,155.5C 225.895,154.311 227.895,153.311 230,152.5C 230.711,150.633 230.211,149.133 228.5,148C 230.256,147.798 231.922,147.298 233.5,146.5C 233.167,145.833 232.833,145.167 232.5,144.5C 233.085,141.497 233.752,138.497 234.5,135.5C 235.489,139.107 235.823,142.774 235.5,146.5C 236.833,146.5 238.167,146.5 239.5,146.5C 239.5,141.5 239.5,136.5 239.5,131.5C 237.266,131.38 235.099,131.713 233,132.5C 231.669,131.004 230.169,129.671 228.5,128.5C 227.749,129.376 227.249,130.376 227,131.5C 225.365,127.242 223.532,123.242 221.5,119.5C 226.167,118.167 230.833,116.833 235.5,115.5C 234.858,118.135 234.191,120.802 233.5,123.5C 233.833,124.833 234.167,126.167 234.5,127.5C 235.474,125.257 235.808,122.924 235.5,120.5C 238.833,120.5 240.5,118.833 240.5,115.5C 241.5,115.5 242.5,115.5 243.5,115.5C 243.5,110.167 243.5,104.833 243.5,99.5C 247.167,99.5 250.833,99.5 254.5,99.5C 253.345,106.341 252.345,113.008 251.5,119.5C 252.833,119.5 254.167,119.5 255.5,119.5C 255.5,120.833 255.5,122.167 255.5,123.5C 257.199,123.34 258.866,123.506 260.5,124C 259.565,126.381 259.232,128.881 259.5,131.5C 258.167,131.5 256.833,131.5 255.5,131.5C 255.5,133.5 255.5,135.5 255.5,137.5C 259.37,138.799 263.37,139.466 267.5,139.5C 267.62,136.52 268.287,133.687 269.5,131C 267.513,128.53 267.013,125.697 268,122.5C 268.86,125.084 270.027,127.417 271.5,129.5 Z"/></g>
<g><path style="opacity:0.094" fill="#fbeaa5" d="M 273.5,125.5 C 275.857,131.896 277.69,138.562 279,145.5C 280.574,157.292 281.74,169.125 282.5,181C 282.435,183.225 282.102,185.392 281.5,187.5C 282.667,187.833 283.833,188.167 285,188.5C 288.709,187.983 292.209,186.983 295.5,185.5C 295.5,185.833 295.5,186.167 295.5,186.5C 292.743,188.086 289.743,189.086 286.5,189.5C 284.5,189.5 282.5,189.5 280.5,189.5C 281.57,172.741 279.903,156.408 275.5,140.5C 275.552,138.097 275.219,135.764 274.5,133.5C 274.167,130.833 273.833,128.167 273.5,125.5 Z"/></g>
<g><path style="opacity:1" fill="#fdd458" d="M 251.5,163.5 C 247.953,161.459 244.286,159.626 240.5,158C 230.184,157.159 220.517,159.325 211.5,164.5C 208.33,168.518 207.83,172.851 210,177.5C 213.264,179.84 216.431,182.34 219.5,185C 226.459,186.331 233.459,186.664 240.5,186C 244.543,184.678 248.21,182.845 251.5,180.5C 251.739,182.467 251.406,184.301 250.5,186C 246.076,186.819 241.909,188.319 238,190.5C 232.57,190.723 227.07,189.889 221.5,188C 219.285,186.956 216.952,186.29 214.5,186C 208.553,181.723 206.22,175.89 207.5,168.5C 209.448,163.553 212.781,159.886 217.5,157.5C 223.128,156.575 228.795,155.908 234.5,155.5C 239.847,155.84 244.847,157.34 249.5,160C 250.823,160.816 251.489,161.983 251.5,163.5 Z"/></g>
<g><path style="opacity:0.196" fill="#fce89a" d="M 55.5,165.5 C 56.4907,171.979 56.824,178.646 56.5,185.5C 56.1667,186.167 55.8333,186.833 55.5,187.5C 53.4862,187.608 51.8195,186.942 50.5,185.5C 49.3951,184.4 48.0618,183.733 46.5,183.5C 46.5,182.833 46.5,182.167 46.5,181.5C 48.6125,182.44 50.6125,183.606 52.5,185C 53.635,185.749 54.635,185.583 55.5,184.5C 55.3094,178.263 55.3094,171.929 55.5,165.5 Z"/></g>
<g><path style="opacity:0.976" fill="#e3a428" d="M 301.5,197.5 C 301.829,193.58 302.662,189.913 304,186.5C 301.282,185.987 298.449,185.987 295.5,186.5C 295.5,186.167 295.5,185.833 295.5,185.5C 298.181,185.538 300.681,184.871 303,183.5C 303.772,183.645 304.439,183.978 305,184.5C 306.141,189.525 304.975,193.858 301.5,197.5 Z"/></g>
<g><path style="opacity:0.831" fill="#e1a22d" d="M 45.5,181.5 C 45.8333,181.5 46.1667,181.5 46.5,181.5C 46.5,182.167 46.5,182.833 46.5,183.5C 43.7569,183.077 42.4235,184.244 42.5,187C 43.5594,191.509 45.226,195.675 47.5,199.5C 46.3634,198.211 45.0301,197.211 43.5,196.5C 41.7206,191.985 41.2206,187.318 42,182.5C 43.0113,181.663 44.1779,181.33 45.5,181.5 Z"/></g>
<g><path style="opacity:1" fill="#f9a309" d="M 46.5,183.5 C 48.0618,183.733 49.3951,184.4 50.5,185.5C 50.6941,187.912 52.0274,188.912 54.5,188.5C 54.6813,191.397 54.3479,194.23 53.5,197C 53.6301,198.059 54.1301,198.892 55,199.5C 55.1911,205.083 55.6911,210.583 56.5,216C 52.7483,216.976 52.0817,216.31 54.5,214C 53.5683,211.349 52.2349,211.015 50.5,213C 50.8333,213.333 51.1667,213.667 51.5,214C 50.2068,214.49 48.8734,214.657 47.5,214.5C 47.5,213.167 47.5,211.833 47.5,210.5C 46.5,210.5 45.5,210.5 44.5,210.5C 44.5,208.833 44.5,207.167 44.5,205.5C 47.0593,205.802 49.3926,205.468 51.5,204.5C 50.7377,202.738 49.4044,201.738 47.5,201.5C 47.5,200.833 47.5,200.167 47.5,199.5C 45.226,195.675 43.5594,191.509 42.5,187C 42.4235,184.244 43.7569,183.077 46.5,183.5 Z"/></g>
<g><path style="opacity:0.078" fill="#f5d583" d="M 299.5,201.5 C 299.157,199.517 299.824,198.183 301.5,197.5C 304.975,193.858 306.141,189.525 305,184.5C 304.439,183.978 303.772,183.645 303,183.5C 300.681,184.871 298.181,185.538 295.5,185.5C 298.627,182.945 302.294,181.945 306.5,182.5C 307.772,190.269 305.438,196.602 299.5,201.5 Z"/></g>
<g><path style="opacity:1" fill="#fba509" d="M 301.5,197.5 C 299.824,198.183 299.157,199.517 299.5,201.5C 297.833,201.5 296.167,201.5 294.5,201.5C 294.167,203.5 293.833,205.5 293.5,207.5C 294.401,209.727 296.067,210.727 298.5,210.5C 298.5,212.5 298.5,214.5 298.5,216.5C 294.101,219.55 289.434,222.217 284.5,224.5C 283.167,225.5 283.167,226.5 284.5,227.5C 286.507,229.689 287.507,232.355 287.5,235.5C 285.027,235.088 283.694,236.088 283.5,238.5C 280.214,239.207 276.881,239.54 273.5,239.5C 272.547,237.384 271.547,235.218 270.5,233C 271.416,232.626 272.25,232.126 273,231.5C 273.356,224.28 275.356,217.613 279,211.5C 280.239,205.565 280.739,199.565 280.5,193.5C 284.814,192.065 289.147,190.565 293.5,189C 294.381,188.292 295.047,187.458 295.5,186.5C 298.449,185.987 301.282,185.987 304,186.5C 302.662,189.913 301.829,193.58 301.5,197.5 Z"/></g>
<g><path style="opacity:0.192" fill="#f8dc90" d="M 45.5,181.5 C 44.1779,181.33 43.0113,181.663 42,182.5C 41.2206,187.318 41.7206,191.985 43.5,196.5C 42.2101,195.942 41.3768,194.942 41,193.5C 40.3333,189.5 40.3333,185.5 41,181.5C 42.6155,180.199 44.1155,180.199 45.5,181.5 Z"/></g>
<g><path style="opacity:0.231" fill="#f3cf7d" d="M 43.5,196.5 C 45.0301,197.211 46.3634,198.211 47.5,199.5C 47.5,200.167 47.5,200.833 47.5,201.5C 45.4131,200.415 44.0798,198.749 43.5,196.5 Z"/></g>
<g><path style="opacity:0.949" fill="#f3cc69" d="M 299.5,201.5 C 298.284,203.451 296.618,204.951 294.5,206C 297.445,206.139 299.779,207.306 301.5,209.5C 298.888,208.629 296.221,207.963 293.5,207.5C 293.833,205.5 294.167,203.5 294.5,201.5C 296.167,201.5 297.833,201.5 299.5,201.5 Z"/></g>
<g><path style="opacity:0.188" fill="#f6d87c" d="M 47.5,201.5 C 49.4044,201.738 50.7377,202.738 51.5,204.5C 41.5173,203.86 39.8506,207.36 46.5,215C 49.3591,216.26 52.0258,217.76 54.5,219.5C 45.3463,218.522 41.1796,213.522 42,204.5C 44.0693,203.736 46.236,203.236 48.5,203C 47.944,202.617 47.6107,202.117 47.5,201.5 Z"/></g>
<g><path style="opacity:1" fill="#f7c13d" d="M 278.5,189.5 C 279.167,189.5 279.833,189.5 280.5,189.5C 282.5,189.5 284.5,189.5 286.5,189.5C 284.107,190.21 281.607,190.877 279,191.5C 278.689,197.874 278.023,204.207 277,210.5C 275.842,210.998 275.009,211.831 274.5,213C 273.471,221.376 270.138,228.542 264.5,234.5C 262.638,236.862 261.471,239.529 261,242.5C 258.918,245.383 256.418,247.717 253.5,249.5C 257.755,243.259 261.921,236.925 266,230.5C 272.172,217.489 276.338,203.823 278.5,189.5 Z"/></g>
<g><path style="opacity:0.996" fill="#e8a623" d="M 293.5,207.5 C 296.221,207.963 298.888,208.629 301.5,209.5C 302.18,213.791 300.514,216.457 296.5,217.5C 296.5,218.833 296.5,220.167 296.5,221.5C 296.167,221.5 295.833,221.5 295.5,221.5C 291.765,222.301 288.099,223.301 284.5,224.5C 289.434,222.217 294.101,219.55 298.5,216.5C 298.5,214.5 298.5,212.5 298.5,210.5C 296.067,210.727 294.401,209.727 293.5,207.5 Z"/></g>
<g><path style="opacity:0.608" fill="#f2cf74" d="M 301.5,209.5 C 302.478,209.811 303.145,210.478 303.5,211.5C 302.127,215.604 299.794,218.938 296.5,221.5C 296.5,220.167 296.5,218.833 296.5,217.5C 300.514,216.457 302.18,213.791 301.5,209.5 Z"/></g>
<g><path style="opacity:1" fill="#f7a91f" d="M 50.5,185.5 C 51.8195,186.942 53.4862,187.608 55.5,187.5C 56.3815,192.086 57.0482,196.753 57.5,201.5C 57.5854,203.333 58.2521,204.666 59.5,205.5C 58.0525,213.161 60.0525,219.827 65.5,225.5C 63.2102,231.16 59.5435,232.493 54.5,229.5C 53.6586,227.621 53.3253,225.621 53.5,223.5C 56.5,223.833 57.8333,222.5 57.5,219.5C 56.5,219.5 55.5,219.5 54.5,219.5C 52.0258,217.76 49.3591,216.26 46.5,215C 39.8506,207.36 41.5173,203.86 51.5,204.5C 49.3926,205.468 47.0593,205.802 44.5,205.5C 44.5,207.167 44.5,208.833 44.5,210.5C 45.5,210.5 46.5,210.5 47.5,210.5C 47.5,211.833 47.5,213.167 47.5,214.5C 48.8734,214.657 50.2068,214.49 51.5,214C 51.1667,213.667 50.8333,213.333 50.5,213C 52.2349,211.015 53.5683,211.349 54.5,214C 52.0817,216.31 52.7483,216.976 56.5,216C 55.6911,210.583 55.1911,205.083 55,199.5C 54.1301,198.892 53.6301,198.059 53.5,197C 54.3479,194.23 54.6813,191.397 54.5,188.5C 52.0274,188.912 50.6941,187.912 50.5,185.5 Z"/></g>
<g><path style="opacity:0.251" fill="#f7dc7b" d="M 295.5,221.5 C 292.603,223.778 289.27,225.278 285.5,226C 287.635,226.876 288.969,228.376 289.5,230.5C 287.999,229.248 286.332,228.248 284.5,227.5C 283.167,226.5 283.167,225.5 284.5,224.5C 288.099,223.301 291.765,222.301 295.5,221.5 Z"/></g>
<g><path style="opacity:0.753" fill="#e4bd5f" d="M 54.5,219.5 C 55.5,219.5 56.5,219.5 57.5,219.5C 57.8333,222.5 56.5,223.833 53.5,223.5C 53.3253,225.621 53.6586,227.621 54.5,229.5C 55.1667,230.5 55.8333,231.5 56.5,232.5C 49.0583,229.24 48.725,225.407 55.5,221C 54.944,220.617 54.6107,220.117 54.5,219.5 Z"/></g>
<g><path style="opacity:0.906" fill="#e6b548" d="M 284.5,227.5 C 286.332,228.248 287.999,229.248 289.5,230.5C 290.978,233.739 289.978,236.072 286.5,237.5C 285.391,237.557 284.391,237.89 283.5,238.5C 283.694,236.088 285.027,235.088 287.5,235.5C 287.507,232.355 286.507,229.689 284.5,227.5 Z"/></g>
<g><path style="opacity:1" fill="#f5b638" d="M 59.5,205.5 C 61.6258,210.598 63.9591,215.765 66.5,221C 67.2865,223.099 67.6199,225.266 67.5,227.5C 68.675,227.281 69.675,227.614 70.5,228.5C 72.6595,232.329 74.3262,236.329 75.5,240.5C 74.5416,240.047 73.7083,239.381 73,238.5C 72.6667,238.833 72.3333,239.167 72,239.5C 71.4177,236.332 70.4177,235.999 69,238.5C 68.7765,246.322 72.1099,252.322 79,256.5C 79.706,261.594 81.8727,266.261 85.5,270.5C 84.8333,270.5 84.1667,270.5 83.5,270.5C 77.8923,263.573 72.559,256.573 67.5,249.5C 67.5,249.167 67.5,248.833 67.5,248.5C 67.2927,245.759 66.2927,243.426 64.5,241.5C 63.969,238.763 63.1356,236.096 62,233.5C 60.3005,232.594 58.4672,232.261 56.5,232.5C 55.8333,231.5 55.1667,230.5 54.5,229.5C 59.5435,232.493 63.2102,231.16 65.5,225.5C 60.0525,219.827 58.0525,213.161 59.5,205.5 Z"/></g>
<g><path style="opacity:0.063" fill="#fbe191" d="M 56.5,232.5 C 58.4672,232.261 60.3005,232.594 62,233.5C 63.1356,236.096 63.969,238.763 64.5,241.5C 62.7073,239.574 61.7073,237.241 61.5,234.5C 59.4471,234.598 57.7804,233.931 56.5,232.5 Z"/></g>
<g><path style="opacity:0.251" fill="#f9db8a" d="M 286.5,237.5 C 285.942,238.79 284.942,239.623 283.5,240C 278.863,239.991 274.529,240.825 270.5,242.5C 270.5,241.5 270.5,240.5 270.5,239.5C 271.5,239.5 272.5,239.5 273.5,239.5C 276.881,239.54 280.214,239.207 283.5,238.5C 284.391,237.89 285.391,237.557 286.5,237.5 Z"/></g>
<g><path style="opacity:1" fill="#fce581" d="M 221.5,227.5 C 222.787,229.637 223.621,231.97 224,234.5C 225.512,235.257 226.846,236.257 228,237.5C 229.461,242.419 231.461,247.086 234,251.5C 235.012,256.075 234.512,260.408 232.5,264.5C 232.624,265.107 232.957,265.44 233.5,265.5C 232.198,267.822 230.198,269.155 227.5,269.5C 212.473,274.34 197.14,278.007 181.5,280.5C 175.966,279.43 170.3,279.43 164.5,280.5C 145.754,279.013 127.754,274.347 110.5,266.5C 110.999,261.508 111.499,256.508 112,251.5C 113.667,247.167 115.333,242.833 117,238.5C 121.351,232.995 125.518,227.495 129.5,222C 137.03,217.817 144.697,213.817 152.5,210C 169.978,204.739 186.978,205.739 203.5,213C 209.119,218.467 215.119,223.3 221.5,227.5 Z"/></g>
<g><path style="opacity:1" fill="#fbe585" d="M 162.5,209.5 C 169.175,209.334 175.842,209.5 182.5,210C 185.057,210.685 186.891,212.185 188,214.5C 190.764,211.649 193.264,212.149 195.5,216C 200.084,216.305 204.084,217.971 207.5,221C 209.557,222.719 211.224,224.719 212.5,227C 211.57,232.45 211.237,237.95 211.5,243.5C 213.5,243.5 215.5,243.5 217.5,243.5C 217.18,240.102 217.513,236.768 218.5,233.5C 221.025,236.669 223.691,239.836 226.5,243C 225.584,243.374 224.75,243.874 224,244.5C 222.883,251.021 220.716,257.021 217.5,262.5C 212.356,264.274 207.689,263.441 203.5,260C 201.527,259.505 199.527,259.338 197.5,259.5C 196.389,263.958 193.723,267.291 189.5,269.5C 183.658,267.687 177.658,267.02 171.5,267.5C 171.5,271.167 171.5,274.833 171.5,278.5C 167.383,279.137 163.216,278.804 159,277.5C 157.853,278.458 156.853,278.125 156,276.5C 155.692,277.308 155.192,277.975 154.5,278.5C 150.63,277.966 146.963,276.8 143.5,275C 146.248,270.617 147.582,270.783 147.5,275.5C 152.901,275.297 158.234,274.964 163.5,274.5C 163.817,271.428 163.484,268.428 162.5,265.5C 161.313,266.894 160.646,266.727 160.5,265C 161.01,263.174 161.844,263.007 163,264.5C 163.49,263.207 163.657,261.873 163.5,260.5C 161.105,259.637 158.771,259.637 156.5,260.5C 154.415,263.95 155.415,266.45 159.5,268C 156.961,270.941 155.628,270.774 155.5,267.5C 149.044,267.901 142.71,267.234 136.5,265.5C 134.579,265.86 132.912,266.694 131.5,268C 132.696,268.654 132.696,269.154 131.5,269.5C 129.155,266.779 127.322,267.112 126,270.5C 124.266,269.751 122.433,269.251 120.5,269C 119.167,268.333 119.167,267.667 120.5,267C 122.965,264.469 125.965,262.969 129.5,262.5C 129.833,261.833 130.167,261.167 130.5,260.5C 129.546,254.896 129.212,249.229 129.5,243.5C 120.474,245.197 118.807,242.863 124.5,236.5C 126.986,234.845 129.32,233.012 131.5,231C 130.614,229.098 130.947,227.265 132.5,225.5C 139.561,219.633 147.561,215.299 156.5,212.5C 158.602,219.023 156.768,221.356 151,219.5C 149.598,221.633 147.765,223.3 145.5,224.5C 154.639,227.286 163.972,228.119 173.5,227C 174.996,224.799 175.996,222.299 176.5,219.5C 178.001,218.248 179.668,217.248 181.5,216.5C 180.147,215.476 179.48,214.143 179.5,212.5C 177.086,214.224 174.42,215.558 171.5,216.5C 171.33,215.178 171.663,214.011 172.5,213C 169.833,212.667 167.167,212.333 164.5,212C 163.244,211.583 162.577,210.75 162.5,209.5 Z"/></g>
<g><path style="opacity:0.106" fill="#fce19c" d="M 64.5,241.5 C 66.2927,243.426 67.2927,245.759 67.5,248.5C 65.7073,246.574 64.7073,244.241 64.5,241.5 Z"/></g>
<g><path style="opacity:0.173" fill="#f9e2ab" d="M 270.5,243.5 C 270.008,245.819 269.008,247.819 267.5,249.5C 267.031,246.607 268.031,244.607 270.5,243.5 Z"/></g>
<g><path style="opacity:1" fill="#fbb42f" d="M 75.5,240.5 C 83.6715,250.679 93.3381,259.012 104.5,265.5C 104.45,267.59 105.45,268.923 107.5,269.5C 108.66,273.459 108.827,277.459 108,281.5C 107.71,283.044 107.044,284.377 106,285.5C 103.749,284.588 101.583,283.588 99.5,282.5C 94.8238,278.442 90.1571,274.442 85.5,270.5C 81.8727,266.261 79.706,261.594 79,256.5C 72.1099,252.322 68.7765,246.322 69,238.5C 70.4177,235.999 71.4177,236.332 72,239.5C 72.3333,239.167 72.6667,238.833 73,238.5C 73.7083,239.381 74.5416,240.047 75.5,240.5 Z"/></g>
<g><path style="opacity:0.263" fill="#f6df91" d="M 267.5,249.5 C 265.841,254.827 263.174,259.493 259.5,263.5C 261.209,259.079 263.209,254.746 265.5,250.5C 265.957,249.702 266.624,249.369 267.5,249.5 Z"/></g>
<g><path style="opacity:1" fill="#f8b431" d="M 295.5,186.5 C 295.047,187.458 294.381,188.292 293.5,189C 289.147,190.565 284.814,192.065 280.5,193.5C 280.739,199.565 280.239,205.565 279,211.5C 275.356,217.613 273.356,224.28 273,231.5C 272.25,232.126 271.416,232.626 270.5,233C 271.547,235.218 272.547,237.384 273.5,239.5C 272.5,239.5 271.5,239.5 270.5,239.5C 270.5,240.5 270.5,241.5 270.5,242.5C 270.5,242.833 270.5,243.167 270.5,243.5C 268.031,244.607 267.031,246.607 267.5,249.5C 266.624,249.369 265.957,249.702 265.5,250.5C 263.209,254.746 261.209,259.079 259.5,263.5C 255.894,263.939 253.728,265.939 253,269.5C 251.559,270.87 249.892,271.87 248,272.5C 247.51,273.793 247.343,275.127 247.5,276.5C 246.209,276.263 245.209,276.596 244.5,277.5C 241.556,279.311 238.556,281.144 235.5,283C 234.056,283.781 232.723,283.614 231.5,282.5C 232.32,280.889 233.654,280.222 235.5,280.5C 235.657,279.127 235.49,277.793 235,276.5C 234.107,277.711 233.274,277.711 232.5,276.5C 234.105,272.632 235.105,268.632 235.5,264.5C 242.688,260.909 248.688,255.909 253.5,249.5C 256.418,247.717 258.918,245.383 261,242.5C 261.471,239.529 262.638,236.862 264.5,234.5C 270.138,228.542 273.471,221.376 274.5,213C 275.009,211.831 275.842,210.998 277,210.5C 278.023,204.207 278.689,197.874 279,191.5C 281.607,190.877 284.107,190.21 286.5,189.5C 289.743,189.086 292.743,188.086 295.5,186.5 Z"/></g>
<g><path style="opacity:0.306" fill="#f6dc92" d="M 67.5,249.5 C 72.559,256.573 77.8923,263.573 83.5,270.5C 84.1667,271.5 84.8333,272.5 85.5,273.5C 77.6959,267.006 71.6959,259.006 67.5,249.5 Z"/></g>
<g><path style="opacity:0.937" fill="#f1cb72" d="M 259.5,263.5 C 255.856,270.135 250.856,275.469 244.5,279.5C 244.5,278.833 244.5,278.167 244.5,277.5C 245.209,276.596 246.209,276.263 247.5,276.5C 247.343,275.127 247.51,273.793 248,272.5C 249.892,271.87 251.559,270.87 253,269.5C 253.728,265.939 255.894,263.939 259.5,263.5 Z"/></g>
<g><path style="opacity:1" fill="#f0c66a" d="M 83.5,270.5 C 84.1667,270.5 84.8333,270.5 85.5,270.5C 90.1571,274.442 94.8238,278.442 99.5,282.5C 100.894,284.708 102.894,286.208 105.5,287C 110.849,288.346 116.183,289.679 121.5,291C 123.037,292.11 123.703,293.61 123.5,295.5C 123.5,295.833 123.5,296.167 123.5,296.5C 123.167,296.5 122.833,296.5 122.5,296.5C 110.712,292.282 99.7121,286.449 89.5,279C 87.7898,277.349 86.4564,275.516 85.5,273.5C 84.8333,272.5 84.1667,271.5 83.5,270.5 Z"/></g>
<g><path style="opacity:1" fill="#f9bc46" d="M 235.5,264.5 C 235.105,268.632 234.105,272.632 232.5,276.5C 233.274,277.711 234.107,277.711 235,276.5C 235.49,277.793 235.657,279.127 235.5,280.5C 233.654,280.222 232.32,280.889 231.5,282.5C 232.723,283.614 234.056,283.781 235.5,283C 238.556,281.144 241.556,279.311 244.5,277.5C 244.5,278.167 244.5,278.833 244.5,279.5C 244.5,280.167 244.167,280.5 243.5,280.5C 239.856,282.817 235.856,284.317 231.5,285C 228.5,287 225.5,289 222.5,291C 216.845,291.998 211.178,292.832 205.5,293.5C 205.5,294.5 205.5,295.5 205.5,296.5C 203.801,296.34 202.134,296.506 200.5,297C 199.244,297.417 198.577,298.25 198.5,299.5C 198.167,299.5 197.833,299.5 197.5,299.5C 178.318,299.984 158.985,299.318 139.5,297.5C 137.955,297.511 136.622,297.844 135.5,298.5C 134.833,298.5 134.167,298.5 133.5,298.5C 133.389,297.883 133.056,297.383 132.5,297C 129.487,296.498 126.487,295.998 123.5,295.5C 123.703,293.61 123.037,292.11 121.5,291C 116.183,289.679 110.849,288.346 105.5,287C 102.894,286.208 100.894,284.708 99.5,282.5C 101.583,283.588 103.749,284.588 106,285.5C 107.044,284.377 107.71,283.044 108,281.5C 108.827,277.459 108.66,273.459 107.5,269.5C 105.45,268.923 104.45,267.59 104.5,265.5C 106.292,265.366 107.958,265.699 109.5,266.5C 112.039,269.19 115.039,271.357 118.5,273C 146.863,283.253 175.863,285.253 205.5,279C 213.635,277.323 220.968,274.157 227.5,269.5C 230.198,269.155 232.198,267.822 233.5,265.5C 234.167,265.167 234.833,264.833 235.5,264.5 Z"/></g>
<g><path style="opacity:1" fill="#fbd66a" d="M 109.5,266.5 C 109.833,266.5 110.167,266.5 110.5,266.5C 127.754,274.347 145.754,279.013 164.5,280.5C 170.3,279.43 175.966,279.43 181.5,280.5C 197.14,278.007 212.473,274.34 227.5,269.5C 220.968,274.157 213.635,277.323 205.5,279C 175.863,285.253 146.863,283.253 118.5,273C 115.039,271.357 112.039,269.19 109.5,266.5 Z"/></g>
<g><path style="opacity:0.125" fill="#f3d17d" d="M 243.5,280.5 C 232.641,289.025 220.308,294.692 206.5,297.5C 206.5,296.833 206.167,296.5 205.5,296.5C 205.5,295.5 205.5,294.5 205.5,293.5C 211.178,292.832 216.845,291.998 222.5,291C 225.5,289 228.5,287 231.5,285C 235.856,284.317 239.856,282.817 243.5,280.5 Z"/></g>
<g><path style="opacity:0.359" fill="#f5dd96" d="M 135.5,298.5 C 136.622,297.844 137.955,297.511 139.5,297.5C 158.985,299.318 178.318,299.984 197.5,299.5C 176.78,302.375 156.113,302.041 135.5,298.5 Z"/></g>
<g><path style="opacity:0.09" fill="#f7c398" d="M 205.5,296.5 C 206.167,296.5 206.5,296.833 206.5,297.5C 207.26,303.804 207.593,310.137 207.5,316.5C 206.064,310.053 205.397,303.386 205.5,296.5 Z"/></g>
<g><path style="opacity:0.894" fill="#c85923" d="M 205.5,296.5 C 205.397,303.386 206.064,310.053 207.5,316.5C 212.63,319.732 217.964,322.399 223.5,324.5C 223.5,324.833 223.5,325.167 223.5,325.5C 220.86,324.552 218.193,323.552 215.5,322.5C 211.65,322.056 208.483,320.389 206,317.5C 204.952,310.885 204.119,304.218 203.5,297.5C 202.264,298.246 200.93,298.579 199.5,298.5C 199.746,305.518 199.913,312.518 200,319.5C 196.902,323.107 193.402,326.107 189.5,328.5C 192.129,325.369 194.962,322.369 198,319.5C 198.5,312.842 198.666,306.175 198.5,299.5C 198.577,298.25 199.244,297.417 200.5,297C 202.134,296.506 203.801,296.34 205.5,296.5 Z"/></g>
<g><path style="opacity:1" fill="#e64b07" d="M 215.5,322.5 C 215.369,323.376 215.702,324.043 216.5,324.5C 219.387,326.111 222.387,327.444 225.5,328.5C 223.257,329.474 220.924,329.808 218.5,329.5C 217.5,329.5 216.5,329.5 215.5,329.5C 215.229,331.38 215.896,332.713 217.5,333.5C 217.5,335.5 217.5,337.5 217.5,339.5C 215.143,339.663 212.81,339.497 210.5,339C 208.377,335.049 205.711,331.549 202.5,328.5C 200.739,329.035 199.406,330.035 198.5,331.5C 196.251,332.08 194.585,333.413 193.5,335.5C 183.776,338.939 182.109,336.606 188.5,328.5C 188.833,328.5 189.167,328.5 189.5,328.5C 193.402,326.107 196.902,323.107 200,319.5C 199.913,312.518 199.746,305.518 199.5,298.5C 200.93,298.579 202.264,298.246 203.5,297.5C 204.119,304.218 204.952,310.885 206,317.5C 208.483,320.389 211.65,322.056 215.5,322.5 Z"/></g>
<g><path style="opacity:0.4" fill="#eeb386" d="M 134.5,319.5 C 136.882,320.351 138.882,321.684 140.5,323.5C 139.391,323.443 138.391,323.11 137.5,322.5C 135.81,322.144 134.81,321.144 134.5,319.5 Z"/></g>
<g><path style="opacity:0.212" fill="#f4bb91" d="M 122.5,296.5 C 122.833,296.5 123.167,296.5 123.5,296.5C 123.666,304.84 123.5,313.173 123,321.5C 121.259,322.758 119.426,323.758 117.5,324.5C 118.508,322.661 120.008,321.328 122,320.5C 122.5,312.507 122.666,304.507 122.5,296.5 Z"/></g>
<g><path style="opacity:0.251" fill="#efb184" d="M 197.5,299.5 C 197.833,299.5 198.167,299.5 198.5,299.5C 198.666,306.175 198.5,312.842 198,319.5C 194.962,322.369 192.129,325.369 189.5,328.5C 189.167,328.5 188.833,328.5 188.5,328.5C 188.5,328.167 188.5,327.833 188.5,327.5C 191.129,324.369 193.962,321.369 197,318.5C 197.5,312.175 197.666,305.842 197.5,299.5 Z"/></g>
<g><path style="opacity:1" fill="#eb4c04" d="M 134.5,319.5 C 134.81,321.144 135.81,322.144 137.5,322.5C 137.539,323.583 137.873,324.583 138.5,325.5C 143.047,327.934 147.38,330.601 151.5,333.5C 151.5,334.5 151.5,335.5 151.5,336.5C 145.705,335.093 140.038,333.426 134.5,331.5C 134.74,334.579 134.407,337.579 133.5,340.5C 132.833,340.833 132.167,341.167 131.5,341.5C 130.133,340.775 128.8,340.108 127.5,339.5C 126.978,336.747 126.144,334.08 125,331.5C 124.329,330.748 123.496,330.414 122.5,330.5C 120.095,330.866 117.762,331.533 115.5,332.5C 114.833,332.167 114.167,331.833 113.5,331.5C 116.051,327.463 119.551,324.463 124,322.5C 125.37,314.236 125.87,305.903 125.5,297.5C 127.167,297.5 128.833,297.5 130.5,297.5C 131.392,304.791 131.726,312.124 131.5,319.5C 132.5,319.5 133.5,319.5 134.5,319.5 Z"/></g>
<g><path style="opacity:1" fill="#ce4910" d="M 215.5,322.5 C 218.193,323.552 220.86,324.552 223.5,325.5C 225.5,326.167 227.5,326.833 229.5,327.5C 229.703,329.39 229.037,330.89 227.5,332C 224.779,332.602 222.113,332.435 219.5,331.5C 219.167,330.833 218.833,330.167 218.5,329.5C 220.924,329.808 223.257,329.474 225.5,328.5C 222.387,327.444 219.387,326.111 216.5,324.5C 215.702,324.043 215.369,323.376 215.5,322.5 Z"/></g>
<g><path style="opacity:0.129" fill="#e9a67b" d="M 223.5,325.5 C 223.5,325.167 223.5,324.833 223.5,324.5C 226.089,324.461 228.089,325.461 229.5,327.5C 227.5,326.833 225.5,326.167 223.5,325.5 Z"/></g>
<g><path style="opacity:0.192" fill="#f2c277" d="M 115.5,325.5 C 115.027,326.906 114.027,327.573 112.5,327.5C 112.973,326.094 113.973,325.427 115.5,325.5 Z"/></g>
<g><path style="opacity:0.937" fill="#c65219" d="M 137.5,322.5 C 138.391,323.11 139.391,323.443 140.5,323.5C 142.228,325.877 144.561,327.544 147.5,328.5C 148.833,330.167 150.167,331.833 151.5,333.5C 147.38,330.601 143.047,327.934 138.5,325.5C 137.873,324.583 137.539,323.583 137.5,322.5 Z"/></g>
<g><path style="opacity:0.071" fill="#f0b589" d="M 140.5,323.5 C 142.996,324.58 145.33,325.914 147.5,327.5C 147.5,327.833 147.5,328.167 147.5,328.5C 144.561,327.544 142.228,325.877 140.5,323.5 Z"/></g>
<g><path style="opacity:1" fill="#d35723" d="M 123.5,295.5 C 126.487,295.998 129.487,296.498 132.5,297C 133.056,297.383 133.389,297.883 133.5,298.5C 133.999,305.49 134.332,312.49 134.5,319.5C 133.5,319.5 132.5,319.5 131.5,319.5C 131.726,312.124 131.392,304.791 130.5,297.5C 128.833,297.5 127.167,297.5 125.5,297.5C 125.87,305.903 125.37,314.236 124,322.5C 119.551,324.463 116.051,327.463 113.5,331.5C 114.167,331.833 114.833,332.167 115.5,332.5C 117.762,331.533 120.095,330.866 122.5,330.5C 119.564,332.308 116.564,334.141 113.5,336C 111.246,337.15 108.913,337.484 106.5,337C 105.446,335.612 105.28,334.112 106,332.5C 108.687,331.418 110.854,329.751 112.5,327.5C 114.027,327.573 115.027,326.906 115.5,325.5C 115.842,324.662 116.508,324.328 117.5,324.5C 119.426,323.758 121.259,322.758 123,321.5C 123.5,313.173 123.666,304.84 123.5,296.5C 123.5,296.167 123.5,295.833 123.5,295.5 Z"/></g>
<g><path style="opacity:1" fill="#f2d1a5" d="M 112.5,327.5 C 110.854,329.751 108.687,331.418 106,332.5C 105.28,334.112 105.446,335.612 106.5,337C 108.913,337.484 111.246,337.15 113.5,336C 116.564,334.141 119.564,332.308 122.5,330.5C 123.496,330.414 124.329,330.748 125,331.5C 126.144,334.08 126.978,336.747 127.5,339.5C 128.982,343.829 131.482,344.496 135,341.5C 135.498,338.518 135.665,335.518 135.5,332.5C 138.427,333.963 141.427,335.463 144.5,337C 147.146,337.497 149.813,337.664 152.5,337.5C 152.768,335.901 152.434,334.568 151.5,333.5C 150.167,331.833 148.833,330.167 147.5,328.5C 147.5,328.167 147.5,327.833 147.5,327.5C 161.167,327.5 174.833,327.5 188.5,327.5C 188.5,327.833 188.5,328.167 188.5,328.5C 182.109,336.606 183.776,338.939 193.5,335.5C 195.749,334.92 197.415,333.587 198.5,331.5C 199.406,330.035 200.739,329.035 202.5,328.5C 205.711,331.549 208.377,335.049 210.5,339C 212.81,339.497 215.143,339.663 217.5,339.5C 217.5,337.5 217.5,335.5 217.5,333.5C 217.5,332.167 218.167,331.5 219.5,331.5C 222.113,332.435 224.779,332.602 227.5,332C 229.037,330.89 229.703,329.39 229.5,327.5C 230.338,327.842 230.672,328.508 230.5,329.5C 231.51,332.233 233.343,334.233 236,335.5C 237.398,334.949 238.732,334.616 240,334.5C 250.111,335.924 260.277,337.424 270.5,339C 271.38,340.356 271.714,341.856 271.5,343.5C 267.814,344.648 264.147,344.648 260.5,343.5C 257.276,345.85 253.776,346.517 250,345.5C 240.213,347.563 230.046,348.896 219.5,349.5C 219.357,347.738 219.691,346.071 220.5,344.5C 219.675,343.614 218.675,343.281 217.5,343.5C 217.5,345.5 217.5,347.5 217.5,349.5C 201.867,349.662 186.2,350.328 170.5,351.5C 158.837,351.049 147.337,350.382 136,349.5C 136,348.167 136,346.833 136,345.5C 134.883,346.949 134.216,348.616 134,350.5C 131.241,351.654 128.575,351.321 126,349.5C 122.874,350.102 119.707,350.435 116.5,350.5C 99.6787,349.432 83.012,347.265 66.5,344C 65.8333,343 65.1667,342 64.5,341C 66.9007,338.938 69.5674,337.271 72.5,336C 77.8525,335.678 83.1858,335.178 88.5,334.5C 91.8399,333.57 94.8399,332.237 97.5,330.5C 102.922,331.133 107.922,330.133 112.5,327.5 Z"/></g>
<g><path style="opacity:1" fill="#f9a264" d="M 218.5,329.5 C 218.833,330.167 219.167,330.833 219.5,331.5C 218.167,331.5 217.5,332.167 217.5,333.5C 215.896,332.713 215.229,331.38 215.5,329.5C 216.5,329.5 217.5,329.5 218.5,329.5 Z"/></g>
<g><path style="opacity:0.998" fill="#e9d3ab" d="M 230.5,329.5 C 245.4,330.379 260.067,332.879 274.5,337C 277.306,338.305 278.14,340.472 277,343.5C 274.243,345.795 271.077,346.795 267.5,346.5C 229.946,350.481 192.279,352.814 154.5,353.5C 127.377,353.012 100.377,351.012 73.5,347.5C 69.5942,347.106 65.9276,345.94 62.5,344C 61.1667,342 61.1667,340 62.5,338C 73.8287,334 85.4954,331.5 97.5,330.5C 94.8399,332.237 91.8399,333.57 88.5,334.5C 83.1858,335.178 77.8525,335.678 72.5,336C 69.5674,337.271 66.9007,338.938 64.5,341C 65.1667,342 65.8333,343 66.5,344C 83.012,347.265 99.6787,349.432 116.5,350.5C 119.707,350.435 122.874,350.102 126,349.5C 128.575,351.321 131.241,351.654 134,350.5C 134.216,348.616 134.883,346.949 136,345.5C 136,346.833 136,348.167 136,349.5C 147.337,350.382 158.837,351.049 170.5,351.5C 186.2,350.328 201.867,349.662 217.5,349.5C 217.5,347.5 217.5,345.5 217.5,343.5C 218.675,343.281 219.675,343.614 220.5,344.5C 219.691,346.071 219.357,347.738 219.5,349.5C 230.046,348.896 240.213,347.563 250,345.5C 253.776,346.517 257.276,345.85 260.5,343.5C 264.147,344.648 267.814,344.648 271.5,343.5C 271.714,341.856 271.38,340.356 270.5,339C 260.277,337.424 250.111,335.924 240,334.5C 238.732,334.616 237.398,334.949 236,335.5C 233.343,334.233 231.51,332.233 230.5,329.5 Z"/></g>
<g><path style="opacity:1" fill="#f29e66" d="M 198.5,331.5 C 197.415,333.587 195.749,334.92 193.5,335.5C 194.585,333.413 196.251,332.08 198.5,331.5 Z"/></g>
<g><path style="opacity:1" fill="#d15f29" d="M 151.5,333.5 C 152.434,334.568 152.768,335.901 152.5,337.5C 149.813,337.664 147.146,337.497 144.5,337C 141.427,335.463 138.427,333.963 135.5,332.5C 135.665,335.518 135.498,338.518 135,341.5C 131.482,344.496 128.982,343.829 127.5,339.5C 128.8,340.108 130.133,340.775 131.5,341.5C 132.167,341.167 132.833,340.833 133.5,340.5C 134.407,337.579 134.74,334.579 134.5,331.5C 140.038,333.426 145.705,335.093 151.5,336.5C 151.5,335.5 151.5,334.5 151.5,333.5 Z"/></g>
<g><path style="opacity:0.669" fill="#f0e0bd" d="M 267.5,346.5 C 265.438,347.776 263.104,348.61 260.5,349C 229.97,353.002 199.303,354.836 168.5,354.5C 145.127,354.719 121.793,353.885 98.5,352C 89.9756,350.748 81.6423,349.248 73.5,347.5C 100.377,351.012 127.377,353.012 154.5,353.5C 192.279,352.814 229.946,350.481 267.5,346.5 Z"/></g>
</svg>